<svg xmlns="http://www.w3.org/2000/svg" viewBox="0 0 1440 320"><path fill="#40739e" fill-opacity="1" d="M0,192L34.3,165.3C68.6,139,137,85,206,74.7C274.3,64,343,96,411,122.7C480,149,549,171,617,202.7C685.7,235,754,277,823,245.3C891.4,213,960,107,1029,90.7C1097.1,75,1166,149,1234,170.7C1302.9,192,1371,160,1406,144L1440,128L1440,320L1405.7,320C1371.4,320,1303,320,1234,320C1165.7,320,1097,320,1029,320C960,320,891,320,823,320C754.3,320,686,320,617,320C548.6,320,480,320,411,320C342.9,320,274,320,206,320C137.1,320,69,320,34,320L0,320Z"></path></svg>

